<svg width="83" height="82" viewBox="0 0 83 82" fill="none" xmlns="http://www.w3.org/2000/svg">
<path d="M0 48.9922C0 53.057 1.40589 56.5717 4.24823 59.5058C7.09057 62.4398 10.5442 63.9985 14.6701 64.1819C15.0063 64.1819 15.1897 63.9985 15.1897 63.6623V59.5669C15.1897 59.2307 15.0063 59.0473 14.6701 59.0473C12.0417 58.9251 9.81066 57.8554 7.97689 55.8994C6.14312 53.9433 5.22624 51.6206 5.22624 48.9922C5.22624 46.486 6.082 44.2855 7.82408 42.3906C9.56616 40.4957 11.7056 39.426 14.2423 39.1204L15.8621 38.9676C16.2594 38.9676 16.4734 38.7842 16.4734 38.448L16.6873 36.7976C17.0235 33.4968 18.3988 30.7156 20.8744 28.4845C23.35 26.2535 26.2534 25.1226 29.5848 25.1226C32.9161 25.1226 35.8196 26.2535 38.3258 28.4845C40.8319 30.7156 42.2378 33.4968 42.6045 36.7976L42.8185 38.5397C42.8185 38.9065 43.0019 39.1204 43.3381 39.1204H48.2892C51.0093 39.1204 53.3321 40.0984 55.3187 42.0544C57.3053 44.0104 58.2833 46.3026 58.2833 48.9922C58.2833 51.6511 57.3664 53.9433 55.5326 55.8994C53.6988 57.8554 51.4678 58.8945 48.8699 59.0473C48.5032 59.0473 48.2892 59.2307 48.2892 59.5669V63.6623C48.2892 63.9985 48.4726 64.1819 48.8699 64.1819C52.9348 64.0596 56.3884 62.5009 59.2307 59.5669C62.073 56.6023 63.4789 53.0876 63.4789 49.0227C63.4789 46.8222 63.0511 44.7745 62.1953 42.8796C64.5792 39.915 65.7711 36.5531 65.7711 32.7633C65.7711 29.8599 65.0376 27.1703 63.6012 24.6947C62.1647 22.2192 60.2087 20.2631 57.7331 18.8267C55.2575 17.3902 52.5986 16.6873 49.7257 16.6873C44.9579 16.6873 41.0153 18.4599 37.8673 22.0052C35.3612 20.6605 32.6105 19.9881 29.5848 19.9881C25.2754 19.9881 21.4245 21.3328 18.0932 24.0224C14.7618 26.7119 12.6224 30.1349 11.675 34.2915C8.28252 35.0861 5.5013 36.8587 3.30078 39.6094C1.10026 42.36 0 45.4774 0 48.9922ZM16.5039 69.9583C16.5039 70.4778 16.6567 70.9668 16.9929 71.4558C17.3291 71.9448 17.8181 72.281 18.4905 72.4644C18.8267 72.5255 19.1017 72.5867 19.3157 72.5867C20.5076 72.5867 21.3023 71.9448 21.669 70.6306L26.4979 52.6597C26.7119 51.9262 26.6202 51.2538 26.2534 50.612C25.8867 49.9702 25.3366 49.6034 24.6336 49.4506C23.9612 49.2367 23.3194 49.2978 22.7082 49.6646C22.0969 50.0007 21.669 50.5203 21.4551 51.2233L16.6262 69.2859C16.565 69.6832 16.5039 69.8971 16.5039 69.9583ZM24.4808 79.3716C24.4808 79.9523 24.6336 80.4719 24.9392 80.9609C25.2449 81.4499 25.7644 81.7555 26.5285 81.8777C26.8647 81.9389 27.1398 82 27.3231 82C27.8121 82 28.2706 81.8166 28.6985 81.4804C29.1263 81.1137 29.4014 80.6247 29.5237 80.0134L36.8587 52.7208C37.0421 52.0179 36.981 51.3455 36.6448 50.7648C36.3086 50.1841 35.789 49.7562 35.1167 49.5423C34.4137 49.3284 33.7413 49.3895 33.1301 49.7562C32.5188 50.0924 32.0909 50.612 31.9076 51.3149L24.5725 78.6075C24.5114 79.066 24.4808 79.341 24.4808 79.3716ZM25.7644 11.4305C25.7644 12.164 26.0089 12.7753 26.5285 13.2948L28.5151 15.312C29.0958 15.7704 29.7376 15.9843 30.41 15.9843C31.0518 15.9843 31.6631 15.7398 32.1826 15.2814C32.7022 14.7924 32.9773 14.2117 32.9773 13.4782C32.9773 12.7447 32.7328 12.0723 32.2438 11.5222L30.2877 9.53559C29.7376 9.01603 29.1263 8.77152 28.454 8.77152C27.7205 8.77152 27.0786 9.04659 26.5591 9.56616C26.0395 10.0857 25.7644 10.7275 25.7644 11.4305ZM37.1644 70.0194C37.1644 70.5084 37.3172 70.9974 37.6228 71.4558C37.9284 71.9143 38.4174 72.2505 39.0287 72.4338C39.3649 72.495 39.64 72.5561 39.7928 72.5561C40.3123 72.5561 40.8319 72.4033 41.2903 72.0977C41.7488 71.792 42.0544 71.303 42.2072 70.6001L47.0361 52.6291C47.2195 51.9262 47.1584 51.2538 46.8222 50.6731C46.486 50.0619 45.9665 49.6646 45.2941 49.4506C44.5606 49.2367 43.9187 49.2978 43.3075 49.6646C42.6962 50.0007 42.2989 50.5203 42.1155 51.2233L37.2866 69.2859C37.2255 69.7443 37.1644 69.9888 37.1644 70.0194ZM42.1461 24.9698C44.3161 22.9221 46.8222 21.9135 49.7257 21.9135C52.7208 21.9135 55.2881 22.9832 57.3664 25.0921C59.4752 27.2009 60.5143 29.7682 60.5143 32.7939C60.5143 34.6888 59.9948 36.5837 58.9251 38.448C55.9605 35.4834 52.4152 34.0164 48.2587 34.0164H47.2501C46.4249 30.41 44.7134 27.4148 42.1461 24.9698ZM47.0973 8.92434C47.0973 9.62728 47.3418 10.2385 47.8613 10.7275C48.3809 11.2165 48.9922 11.4611 49.7257 11.4611C50.4286 11.4611 51.0399 11.2165 51.5289 10.7581C52.0179 10.2691 52.2624 9.68841 52.2624 8.9549V2.65896C52.2624 1.86433 52.0179 1.22251 51.5594 0.733507C51.0704 0.244502 50.4897 0 49.7562 0C48.9922 0 48.3503 0.244502 47.8613 0.76407C47.3723 1.28364 47.1278 1.89489 47.1278 2.65896V8.92434H47.0973ZM63.9985 15.8927C63.9985 16.6262 64.2736 17.2374 64.8237 17.6959C65.2516 18.1849 65.8017 18.4294 66.5047 18.4905C67.2076 18.5516 67.8494 18.2766 68.3995 17.6959L72.8006 13.3254C73.3507 12.8058 73.5952 12.164 73.5952 11.3999C73.5952 10.6664 73.3507 10.0246 72.8312 9.53559C72.3116 9.04659 71.7003 8.80209 70.9668 8.80209C70.325 8.80209 69.7443 9.04659 69.1942 9.56616L64.8237 13.9672C64.2736 14.4868 63.9985 15.1286 63.9985 15.8927ZM66.4741 52.1096C66.4741 52.8431 66.7186 53.4849 67.2076 54.035L69.1942 55.9605C69.7443 56.3884 70.3556 56.6023 71.0279 56.6023L71.0891 56.6634C71.792 56.6634 72.3727 56.4189 72.8617 55.9299C73.3507 55.4409 73.5952 54.7991 73.5952 54.0656C73.5952 53.3321 73.3202 52.7514 72.8006 52.293L70.9057 50.2758C70.3556 49.7868 69.7138 49.5423 69.0108 49.5423C68.3079 49.5423 67.6966 49.7868 67.2076 50.3064C66.7186 50.8259 66.4741 51.3761 66.4741 52.1096ZM70.9363 32.7633C70.9363 33.4968 71.2113 34.0775 71.7309 34.5665C72.281 35.1167 72.8923 35.3612 73.6258 35.3612H79.83C80.5635 35.3612 81.1748 35.1167 81.6944 34.5971C82.2139 34.0775 82.4584 33.4663 82.4584 32.7633C82.4584 32.0298 82.2139 31.4186 81.6944 30.899C81.1748 30.3794 80.5635 30.1044 79.83 30.1044H73.6258C72.8923 30.1044 72.281 30.3794 71.7309 30.899C71.1808 31.4186 70.9363 32.0298 70.9363 32.7633Z" fill="#082612"/>
<path d="M0 48.9922C0 53.057 1.40589 56.5717 4.24823 59.5058C7.09057 62.4398 10.5442 63.9985 14.6701 64.1819C15.0063 64.1819 15.1897 63.9985 15.1897 63.6623V59.5669C15.1897 59.2307 15.0063 59.0473 14.6701 59.0473C12.0417 58.9251 9.81066 57.8554 7.97689 55.8994C6.14312 53.9433 5.22624 51.6206 5.22624 48.9922C5.22624 46.486 6.082 44.2855 7.82408 42.3906C9.56616 40.4957 11.7056 39.426 14.2423 39.1204L15.8621 38.9676C16.2594 38.9676 16.4734 38.7842 16.4734 38.448L16.6873 36.7976C17.0235 33.4968 18.3988 30.7156 20.8744 28.4845C23.35 26.2535 26.2534 25.1226 29.5848 25.1226C32.9161 25.1226 35.8196 26.2535 38.3258 28.4845C40.8319 30.7156 42.2378 33.4968 42.6045 36.7976L42.8185 38.5397C42.8185 38.9065 43.0019 39.1204 43.3381 39.1204H48.2892C51.0093 39.1204 53.3321 40.0984 55.3187 42.0544C57.3053 44.0104 58.2833 46.3026 58.2833 48.9922C58.2833 51.6511 57.3664 53.9433 55.5326 55.8994C53.6988 57.8554 51.4678 58.8945 48.8699 59.0473C48.5032 59.0473 48.2892 59.2307 48.2892 59.5669V63.6623C48.2892 63.9985 48.4726 64.1819 48.8699 64.1819C52.9348 64.0596 56.3884 62.5009 59.2307 59.5669C62.073 56.6023 63.4789 53.0876 63.4789 49.0227C63.4789 46.8222 63.0511 44.7745 62.1953 42.8796C64.5792 39.915 65.7711 36.5531 65.7711 32.7633C65.7711 29.8599 65.0376 27.1703 63.6012 24.6947C62.1647 22.2192 60.2087 20.2631 57.7331 18.8267C55.2575 17.3902 52.5986 16.6873 49.7257 16.6873C44.9579 16.6873 41.0153 18.4599 37.8673 22.0052C35.3612 20.6605 32.6105 19.9881 29.5848 19.9881C25.2754 19.9881 21.4245 21.3328 18.0932 24.0224C14.7618 26.7119 12.6224 30.1349 11.675 34.2915C8.28252 35.0861 5.5013 36.8587 3.30078 39.6094C1.10026 42.36 0 45.4774 0 48.9922ZM16.5039 69.9583C16.5039 70.4778 16.6567 70.9668 16.9929 71.4558C17.3291 71.9448 17.8181 72.281 18.4905 72.4644C18.8267 72.5255 19.1017 72.5867 19.3157 72.5867C20.5076 72.5867 21.3023 71.9448 21.669 70.6306L26.4979 52.6597C26.7119 51.9262 26.6202 51.2538 26.2534 50.612C25.8867 49.9702 25.3366 49.6034 24.6336 49.4506C23.9612 49.2367 23.3194 49.2978 22.7082 49.6646C22.0969 50.0007 21.669 50.5203 21.4551 51.2233L16.6262 69.2859C16.565 69.6832 16.5039 69.8971 16.5039 69.9583ZM24.4808 79.3716C24.4808 79.9523 24.6336 80.4719 24.9392 80.9609C25.2449 81.4499 25.7644 81.7555 26.5285 81.8777C26.8647 81.9389 27.1398 82 27.3231 82C27.8121 82 28.2706 81.8166 28.6985 81.4804C29.1263 81.1137 29.4014 80.6247 29.5237 80.0134L36.8587 52.7208C37.0421 52.0179 36.981 51.3455 36.6448 50.7648C36.3086 50.1841 35.789 49.7562 35.1167 49.5423C34.4137 49.3284 33.7413 49.3895 33.1301 49.7562C32.5188 50.0924 32.0909 50.612 31.9076 51.3149L24.5725 78.6075C24.5114 79.066 24.4808 79.341 24.4808 79.3716ZM25.7644 11.4305C25.7644 12.164 26.0089 12.7753 26.5285 13.2948L28.5151 15.312C29.0958 15.7704 29.7376 15.9843 30.41 15.9843C31.0518 15.9843 31.6631 15.7398 32.1826 15.2814C32.7022 14.7924 32.9773 14.2117 32.9773 13.4782C32.9773 12.7447 32.7328 12.0723 32.2438 11.5222L30.2877 9.53559C29.7376 9.01603 29.1263 8.77152 28.454 8.77152C27.7205 8.77152 27.0786 9.04659 26.5591 9.56616C26.0395 10.0857 25.7644 10.7275 25.7644 11.4305ZM37.1644 70.0194C37.1644 70.5084 37.3172 70.9974 37.6228 71.4558C37.9284 71.9143 38.4174 72.2505 39.0287 72.4338C39.3649 72.495 39.64 72.5561 39.7928 72.5561C40.3123 72.5561 40.8319 72.4033 41.2903 72.0977C41.7488 71.792 42.0544 71.303 42.2072 70.6001L47.0361 52.6291C47.2195 51.9262 47.1584 51.2538 46.8222 50.6731C46.486 50.0619 45.9665 49.6646 45.2941 49.4506C44.5606 49.2367 43.9187 49.2978 43.3075 49.6646C42.6962 50.0007 42.2989 50.5203 42.1155 51.2233L37.2866 69.2859C37.2255 69.7443 37.1644 69.9888 37.1644 70.0194ZM42.1461 24.9698C44.3161 22.9221 46.8222 21.9135 49.7257 21.9135C52.7208 21.9135 55.2881 22.9832 57.3664 25.0921C59.4752 27.2009 60.5143 29.7682 60.5143 32.7939C60.5143 34.6888 59.9948 36.5837 58.9251 38.448C55.9605 35.4834 52.4152 34.0164 48.2587 34.0164H47.2501C46.4249 30.41 44.7134 27.4148 42.1461 24.9698ZM47.0973 8.92434C47.0973 9.62728 47.3418 10.2385 47.8613 10.7275C48.3809 11.2165 48.9922 11.4611 49.7257 11.4611C50.4286 11.4611 51.0399 11.2165 51.5289 10.7581C52.0179 10.2691 52.2624 9.68841 52.2624 8.9549V2.65896C52.2624 1.86433 52.0179 1.22251 51.5594 0.733507C51.0704 0.244502 50.4897 0 49.7562 0C48.9922 0 48.3503 0.244502 47.8613 0.76407C47.3723 1.28364 47.1278 1.89489 47.1278 2.65896V8.92434H47.0973ZM63.9985 15.8927C63.9985 16.6262 64.2736 17.2374 64.8237 17.6959C65.2516 18.1849 65.8017 18.4294 66.5047 18.4905C67.2076 18.5516 67.8494 18.2766 68.3995 17.6959L72.8006 13.3254C73.3507 12.8058 73.5952 12.164 73.5952 11.3999C73.5952 10.6664 73.3507 10.0246 72.8312 9.53559C72.3116 9.04659 71.7003 8.80209 70.9668 8.80209C70.325 8.80209 69.7443 9.04659 69.1942 9.56616L64.8237 13.9672C64.2736 14.4868 63.9985 15.1286 63.9985 15.8927ZM66.4741 52.1096C66.4741 52.8431 66.7186 53.4849 67.2076 54.035L69.1942 55.9605C69.7443 56.3884 70.3556 56.6023 71.0279 56.6023L71.0891 56.6634C71.792 56.6634 72.3727 56.4189 72.8617 55.9299C73.3507 55.4409 73.5952 54.7991 73.5952 54.0656C73.5952 53.3321 73.3202 52.7514 72.8006 52.293L70.9057 50.2758C70.3556 49.7868 69.7138 49.5423 69.0108 49.5423C68.3079 49.5423 67.6966 49.7868 67.2076 50.3064C66.7186 50.8259 66.4741 51.3761 66.4741 52.1096ZM70.9363 32.7633C70.9363 33.4968 71.2113 34.0775 71.7309 34.5665C72.281 35.1167 72.8923 35.3612 73.6258 35.3612H79.83C80.5635 35.3612 81.1748 35.1167 81.6944 34.5971C82.2139 34.0775 82.4584 33.4663 82.4584 32.7633C82.4584 32.0298 82.2139 31.4186 81.6944 30.899C81.1748 30.3794 80.5635 30.1044 79.83 30.1044H73.6258C72.8923 30.1044 72.281 30.3794 71.7309 30.899C71.1808 31.4186 70.9363 32.0298 70.9363 32.7633Z" fill="#082612"/>
</svg>
