<svg width="98" height="98" viewBox="0 0 98 98" fill="none" xmlns="http://www.w3.org/2000/svg">
<path d="M0 58.2261C0 63.0571 1.67087 67.2342 5.04893 70.7213C8.42698 74.2083 12.5315 76.0608 17.4351 76.2787C17.8347 76.2787 18.0526 76.0608 18.0526 75.6612V70.7939C18.0526 70.3944 17.8347 70.1764 17.4351 70.1764C14.3113 70.0311 11.6597 68.7598 9.48036 66.4351C7.30096 64.1105 6.21127 61.3499 6.21127 58.2261C6.21127 55.2476 7.22832 52.6323 9.29874 50.3803C11.3692 48.1282 13.9118 46.8569 16.9266 46.4937L18.8517 46.3121C19.3239 46.3121 19.5782 46.0941 19.5782 45.6946L19.8325 43.7331C20.232 39.8102 21.8666 36.5048 24.8087 33.8532C27.7509 31.2016 31.2016 29.8577 35.1609 29.8577C39.1201 29.8577 42.5708 31.2016 45.5493 33.8532C48.5278 36.5048 50.1987 39.8102 50.6345 43.7331L50.8888 45.8036C50.8888 46.2394 51.1067 46.4937 51.5063 46.4937H57.3907C60.6234 46.4937 63.384 47.656 65.745 49.9807C68.106 52.3054 69.2683 55.0296 69.2683 58.2261C69.2683 61.3862 68.1787 64.1105 65.9993 66.4351C63.8199 68.7598 61.1683 69.9948 58.0808 70.1764C57.6449 70.1764 57.3907 70.3944 57.3907 70.7939V75.6612C57.3907 76.0608 57.6086 76.2787 58.0808 76.2787C62.9118 76.1334 67.0163 74.281 70.3944 70.7939C73.7724 67.2706 75.4433 63.0934 75.4433 58.2624C75.4433 55.6471 74.9348 53.2135 73.9177 50.9615C76.7509 47.4381 78.1675 43.4426 78.1675 38.9385C78.1675 35.4878 77.2958 32.2913 75.5886 29.3491C73.8814 26.407 71.5567 24.0823 68.6145 22.3751C65.6723 20.6679 62.5122 19.8325 59.0979 19.8325C53.4314 19.8325 48.7457 21.9392 45.0044 26.1527C42.0259 24.5545 38.7569 23.7554 35.1609 23.7554C30.0393 23.7554 25.4626 25.3536 21.5033 28.55C17.5441 31.7465 15.0015 35.8147 13.8755 40.7546C9.84359 41.699 6.53818 43.8058 3.92291 47.0749C1.30763 50.344 0 54.0489 0 58.2261ZM19.6145 83.1438C19.6145 83.7613 19.7961 84.3425 20.1957 84.9236C20.5953 85.5048 21.1764 85.9044 21.9755 86.1223C22.3751 86.195 22.702 86.2676 22.9563 86.2676C24.3729 86.2676 25.3173 85.5048 25.7532 83.9429L31.4922 62.5849C31.7465 61.7131 31.6375 60.914 31.2016 60.1512C30.7658 59.3884 30.1119 58.9526 29.2765 58.7709C28.4774 58.5167 27.7146 58.5893 26.9881 59.0252C26.2617 59.4248 25.7531 60.0423 25.4989 60.8777L19.7598 82.3447C19.6872 82.8169 19.6145 83.0712 19.6145 83.1438ZM29.0949 94.3314C29.0949 95.0215 29.2765 95.639 29.6397 96.2202C30.003 96.8013 30.6205 97.1646 31.5285 97.3099C31.9281 97.3825 32.255 97.4552 32.4729 97.4552C33.0541 97.4552 33.599 97.2372 34.1075 96.8377C34.616 96.4018 34.9429 95.8206 35.0882 95.0941L43.8058 62.6575C44.0237 61.8221 43.9511 61.023 43.5515 60.3328C43.152 59.6427 42.5345 59.1342 41.7354 58.8799C40.8999 58.6256 40.1008 58.6983 39.3744 59.1342C38.6479 59.5337 38.1394 60.1512 37.9214 60.9867L29.2039 93.4233C29.1312 93.9681 29.0949 94.295 29.0949 94.3314ZM30.6205 13.5849C30.6205 14.4566 30.911 15.1831 31.5285 15.8006L33.8895 18.1979C34.5797 18.7428 35.3425 18.997 36.1416 18.997C36.9044 18.997 37.6308 18.7064 38.2483 18.1616C38.8658 17.5804 39.1927 16.8903 39.1927 16.0185C39.1927 15.1468 38.9022 14.3477 38.321 13.6938L35.9963 11.3328C35.3425 10.7153 34.616 10.4248 33.8169 10.4248C32.9451 10.4248 32.1824 10.7517 31.5649 11.3692C30.9474 11.9867 30.6205 12.7494 30.6205 13.5849ZM44.169 83.2165C44.169 83.7976 44.3506 84.3788 44.7139 84.9236C45.0771 85.4685 45.6583 85.868 46.3847 86.086C46.7843 86.1586 47.1112 86.2313 47.2928 86.2313C47.9103 86.2313 48.5278 86.0497 49.0727 85.6864C49.6175 85.3232 49.9807 84.742 50.1623 83.9066L55.9014 62.5486C56.1193 61.7131 56.0467 60.914 55.6471 60.2239C55.2476 59.4974 54.6301 59.0252 53.831 58.7709C52.9592 58.5167 52.1964 58.5893 51.47 59.0252C50.7435 59.4248 50.2713 60.0423 50.0534 60.8777L44.3143 82.3447C44.2417 82.8895 44.169 83.1801 44.169 83.2165ZM50.0897 29.6761C52.6686 27.2424 55.6472 26.0437 59.0979 26.0437C62.6575 26.0437 65.7087 27.3151 68.1787 29.8214C70.685 32.3277 71.9199 35.3788 71.9199 38.9748C71.9199 41.2268 71.3025 43.4789 70.0311 45.6946C66.5078 42.1712 62.2943 40.4277 57.3543 40.4277H56.1557C55.1749 36.1416 53.1408 32.5819 50.0897 29.6761ZM55.9741 10.6064C55.9741 11.4418 56.2646 12.1683 56.8821 12.7494C57.4996 13.3306 58.2261 13.6212 59.0979 13.6212C59.9333 13.6212 60.6598 13.3306 61.2409 12.7858C61.8221 12.2046 62.1127 11.5145 62.1127 10.6427V3.16012C62.1127 2.21572 61.8221 1.45293 61.2772 0.871757C60.6961 0.290586 60.0059 0 59.1342 0C58.2261 0 57.4633 0.290586 56.8821 0.90808C56.301 1.52557 56.0104 2.25204 56.0104 3.16012V10.6064H55.9741ZM76.0608 18.8881C76.0608 19.7598 76.3877 20.4863 77.0415 21.0311C77.55 21.6123 78.2039 21.9029 79.0393 21.9755C79.8747 22.0482 80.6375 21.7213 81.2913 21.0311L86.5219 15.8369C87.1757 15.2194 87.4663 14.4566 87.4663 13.5486C87.4663 12.6768 87.1757 11.914 86.5582 11.3328C85.9407 10.7517 85.2142 10.4611 84.3425 10.4611C83.5797 10.4611 82.8895 10.7517 82.2357 11.3692L77.0415 16.5997C76.3877 17.2172 76.0608 17.98 76.0608 18.8881ZM79.003 61.9311C79.003 62.8028 79.2936 63.5656 79.8747 64.2194L82.2357 66.5078C82.8895 67.0163 83.616 67.2706 84.4151 67.2706L84.4878 67.3432C85.3232 67.3432 86.0134 67.0526 86.5945 66.4715C87.1757 65.8903 87.4663 65.1275 87.4663 64.2557C87.4663 63.384 87.1394 62.6938 86.5219 62.149L84.2698 59.7517C83.616 59.1705 82.8532 58.8799 82.0178 58.8799C81.1824 58.8799 80.4559 59.1705 79.8747 59.788C79.2936 60.4055 79.003 61.0593 79.003 61.9311ZM84.3062 38.9385C84.3062 39.8102 84.6331 40.5004 85.2506 41.0815C85.9044 41.7354 86.6308 42.0259 87.5026 42.0259H94.8762C95.748 42.0259 96.4744 41.7354 97.0919 41.1179C97.7094 40.5004 98 39.7739 98 38.9385C98 38.0667 97.7094 37.3403 97.0919 36.7228C96.4744 36.1053 95.748 35.7784 94.8762 35.7784H87.5026C86.6308 35.7784 85.9044 36.1053 85.2506 36.7228C84.5967 37.3403 84.3062 38.0667 84.3062 38.9385Z" fill="#082612"/>
<path d="M0 58.2261C0 63.0571 1.67087 67.2342 5.04893 70.7213C8.42698 74.2083 12.5315 76.0608 17.4351 76.2787C17.8347 76.2787 18.0526 76.0608 18.0526 75.6612V70.7939C18.0526 70.3944 17.8347 70.1764 17.4351 70.1764C14.3113 70.0311 11.6597 68.7598 9.48036 66.4351C7.30096 64.1105 6.21127 61.3499 6.21127 58.2261C6.21127 55.2476 7.22832 52.6323 9.29874 50.3803C11.3692 48.1282 13.9118 46.8569 16.9266 46.4937L18.8517 46.3121C19.3239 46.3121 19.5782 46.0941 19.5782 45.6946L19.8325 43.7331C20.232 39.8102 21.8666 36.5048 24.8087 33.8532C27.7509 31.2016 31.2016 29.8577 35.1609 29.8577C39.1201 29.8577 42.5708 31.2016 45.5493 33.8532C48.5278 36.5048 50.1987 39.8102 50.6345 43.7331L50.8888 45.8036C50.8888 46.2394 51.1067 46.4937 51.5063 46.4937H57.3907C60.6234 46.4937 63.384 47.656 65.745 49.9807C68.106 52.3054 69.2683 55.0296 69.2683 58.2261C69.2683 61.3862 68.1787 64.1105 65.9993 66.4351C63.8199 68.7598 61.1683 69.9948 58.0808 70.1764C57.6449 70.1764 57.3907 70.3944 57.3907 70.7939V75.6612C57.3907 76.0608 57.6086 76.2787 58.0808 76.2787C62.9118 76.1334 67.0163 74.281 70.3944 70.7939C73.7724 67.2706 75.4433 63.0934 75.4433 58.2624C75.4433 55.6471 74.9348 53.2135 73.9177 50.9615C76.7509 47.4381 78.1675 43.4426 78.1675 38.9385C78.1675 35.4878 77.2958 32.2913 75.5886 29.3491C73.8814 26.407 71.5567 24.0823 68.6145 22.3751C65.6723 20.6679 62.5122 19.8325 59.0979 19.8325C53.4314 19.8325 48.7457 21.9392 45.0044 26.1527C42.0259 24.5545 38.7569 23.7554 35.1609 23.7554C30.0393 23.7554 25.4626 25.3536 21.5033 28.55C17.5441 31.7465 15.0015 35.8147 13.8755 40.7546C9.84359 41.699 6.53818 43.8058 3.92291 47.0749C1.30763 50.344 0 54.0489 0 58.2261ZM19.6145 83.1438C19.6145 83.7613 19.7961 84.3425 20.1957 84.9236C20.5953 85.5048 21.1764 85.9044 21.9755 86.1223C22.3751 86.195 22.702 86.2676 22.9563 86.2676C24.3729 86.2676 25.3173 85.5048 25.7532 83.9429L31.4922 62.5849C31.7465 61.7131 31.6375 60.914 31.2016 60.1512C30.7658 59.3884 30.1119 58.9526 29.2765 58.7709C28.4774 58.5167 27.7146 58.5893 26.9881 59.0252C26.2617 59.4248 25.7531 60.0423 25.4989 60.8777L19.7598 82.3447C19.6872 82.8169 19.6145 83.0712 19.6145 83.1438ZM29.0949 94.3314C29.0949 95.0215 29.2765 95.639 29.6397 96.2202C30.003 96.8013 30.6205 97.1646 31.5285 97.3099C31.9281 97.3825 32.255 97.4552 32.4729 97.4552C33.0541 97.4552 33.599 97.2372 34.1075 96.8377C34.616 96.4018 34.9429 95.8206 35.0882 95.0941L43.8058 62.6575C44.0237 61.8221 43.9511 61.023 43.5515 60.3328C43.152 59.6427 42.5345 59.1342 41.7354 58.8799C40.8999 58.6256 40.1008 58.6983 39.3744 59.1342C38.6479 59.5337 38.1394 60.1512 37.9214 60.9867L29.2039 93.4233C29.1312 93.9681 29.0949 94.295 29.0949 94.3314ZM30.6205 13.5849C30.6205 14.4566 30.911 15.1831 31.5285 15.8006L33.8895 18.1979C34.5797 18.7428 35.3425 18.997 36.1416 18.997C36.9044 18.997 37.6308 18.7064 38.2483 18.1616C38.8658 17.5804 39.1927 16.8903 39.1927 16.0185C39.1927 15.1468 38.9022 14.3477 38.321 13.6938L35.9963 11.3328C35.3425 10.7153 34.616 10.4248 33.8169 10.4248C32.9451 10.4248 32.1824 10.7517 31.5649 11.3692C30.9474 11.9867 30.6205 12.7494 30.6205 13.5849ZM44.169 83.2165C44.169 83.7976 44.3506 84.3788 44.7139 84.9236C45.0771 85.4685 45.6583 85.868 46.3847 86.086C46.7843 86.1586 47.1112 86.2313 47.2928 86.2313C47.9103 86.2313 48.5278 86.0497 49.0727 85.6864C49.6175 85.3232 49.9807 84.742 50.1623 83.9066L55.9014 62.5486C56.1193 61.7131 56.0467 60.914 55.6471 60.2239C55.2476 59.4974 54.6301 59.0252 53.831 58.7709C52.9592 58.5167 52.1964 58.5893 51.47 59.0252C50.7435 59.4248 50.2713 60.0423 50.0534 60.8777L44.3143 82.3447C44.2417 82.8895 44.169 83.1801 44.169 83.2165ZM50.0897 29.6761C52.6686 27.2424 55.6472 26.0437 59.0979 26.0437C62.6575 26.0437 65.7087 27.3151 68.1787 29.8214C70.685 32.3277 71.9199 35.3788 71.9199 38.9748C71.9199 41.2268 71.3025 43.4789 70.0311 45.6946C66.5078 42.1712 62.2943 40.4277 57.3543 40.4277H56.1557C55.1749 36.1416 53.1408 32.5819 50.0897 29.6761ZM55.9741 10.6064C55.9741 11.4418 56.2646 12.1683 56.8821 12.7494C57.4996 13.3306 58.2261 13.6212 59.0979 13.6212C59.9333 13.6212 60.6598 13.3306 61.2409 12.7858C61.8221 12.2046 62.1127 11.5145 62.1127 10.6427V3.16012C62.1127 2.21572 61.8221 1.45293 61.2772 0.871757C60.6961 0.290586 60.0059 0 59.1342 0C58.2261 0 57.4633 0.290586 56.8821 0.90808C56.301 1.52557 56.0104 2.25204 56.0104 3.16012V10.6064H55.9741ZM76.0608 18.8881C76.0608 19.7598 76.3877 20.4863 77.0415 21.0311C77.55 21.6123 78.2039 21.9029 79.0393 21.9755C79.8747 22.0482 80.6375 21.7213 81.2913 21.0311L86.5219 15.8369C87.1757 15.2194 87.4663 14.4566 87.4663 13.5486C87.4663 12.6768 87.1757 11.914 86.5582 11.3328C85.9407 10.7517 85.2142 10.4611 84.3425 10.4611C83.5797 10.4611 82.8895 10.7517 82.2357 11.3692L77.0415 16.5997C76.3877 17.2172 76.0608 17.98 76.0608 18.8881ZM79.003 61.9311C79.003 62.8028 79.2936 63.5656 79.8747 64.2194L82.2357 66.5078C82.8895 67.0163 83.616 67.2706 84.4151 67.2706L84.4878 67.3432C85.3232 67.3432 86.0134 67.0526 86.5945 66.4715C87.1757 65.8903 87.4663 65.1275 87.4663 64.2557C87.4663 63.384 87.1394 62.6938 86.5219 62.149L84.2698 59.7517C83.616 59.1705 82.8532 58.8799 82.0178 58.8799C81.1824 58.8799 80.4559 59.1705 79.8747 59.788C79.2936 60.4055 79.003 61.0593 79.003 61.9311ZM84.3062 38.9385C84.3062 39.8102 84.6331 40.5004 85.2506 41.0815C85.9044 41.7354 86.6308 42.0259 87.5026 42.0259H94.8762C95.748 42.0259 96.4744 41.7354 97.0919 41.1179C97.7094 40.5004 98 39.7739 98 38.9385C98 38.0667 97.7094 37.3403 97.0919 36.7228C96.4744 36.1053 95.748 35.7784 94.8762 35.7784H87.5026C86.6308 35.7784 85.9044 36.1053 85.2506 36.7228C84.5967 37.3403 84.3062 38.0667 84.3062 38.9385Z" fill="#082612"/>
</svg>
